<svg width="235" height="99" viewBox="0 0 235 99" fill="none" xmlns="http://www.w3.org/2000/svg">
<path d="M37.34 30.9799C37.34 29.6599 37.34 28.4599 37.34 27.25C37.34 23.6199 37.34 19.99 37.34 16.36C37.34 14.66 37.11 12.9799 36.4 11.4299C35.3 9.02994 33.4 7.62996 30.82 7.09996C29.36 6.79996 27.92 6.84995 26.47 7.15995C20.84 8.37995 18.26 14.2999 20.41 19.3399C21.02 20.7699 21.73 22.16 22.79 23.33C23.27 23.86 23.22 24.5599 22.74 25.1999C21.93 26.2699 20.73 26.66 19.43 26.3C17.05 25.65 14.78 24.75 12.7 23.41C10.02 21.68 8.47002 19.2499 7.98002 16.0899C7.29002 11.6899 9.18002 8.38994 12.38 5.67994C15.35 3.16994 18.87 1.71996 22.65 0.989956C28.4 -0.120044 34.1 0.199956 39.67 1.98996C42.57 2.92996 45.32 4.24995 47.53 6.43995C49.93 8.82995 51.59 11.63 51.79 15.11C51.88 16.68 51.89 18.2599 51.9 19.8399C51.9 30.1599 51.9 40.4799 51.9 50.8099C51.9 52.5699 52.04 54.3199 52.51 56.0399C52.79 57.0499 53.28 57.91 54.14 58.5C54.79 58.95 55.2 59.4999 55.06 60.3399C54.91 61.2099 54.25 61.6199 53.53 61.8099C52.86 61.9899 52.12 62.03 51.42 61.99C47.4 61.77 43.77 60.5799 40.94 57.5399C39.65 56.1399 38.65 54.55 38.08 52.71C38 52.44 37.89 52.1699 37.76 51.7799C37.46 52.1899 37.27 52.5399 37 52.8099C35.8 54.0399 34.66 55.3299 33.36 56.4499C31.17 58.3299 28.68 59.78 25.94 60.72C23.79 61.46 21.56 61.9 19.28 62C16.29 62.1399 13.36 61.76 10.49 60.94C8.81 60.46 7.29003 59.5699 5.95003 58.4499C5.26003 57.8799 4.59001 57.27 4.00001 56.6C1.98001 54.29 1.12 51.49 0.859999 48.5C0.429999 43.6399 2.36003 39.69 5.67003 36.3C7.82003 34.09 10.34 32.3999 13.14 31.1799C15.65 30.0899 18.29 29.36 21.04 29.27C26.16 29.09 31.25 29.39 36.23 30.69C36.56 30.78 36.89 30.8599 37.34 30.9799ZM37.36 34.6699C37.21 34.6099 37.16 34.58 37.11 34.57C32.96 33.87 28.85 33.96 24.9 35.49C21.11 36.96 18.24 39.4199 17.18 43.5599C16.56 45.9699 16.46 48.3499 17.29 50.75C18 52.7999 19.48 53.91 21.51 54.32C23.79 54.78 26.04 54.3199 28.02 53.2899C32.47 50.9799 35.6 47.47 36.92 42.49C37.61 39.9 37.21 37.2799 37.37 34.6699H37.36Z" fill="#530F13"/>
<path d="M114.23 4.79998C114.4 4.63998 114.58 4.47998 114.77 4.32998C115.56 3.69998 116.22 3.05998 115.8 2.04998C115.36 0.97998 114.37 0.639981 113.23 0.659981C111.62 0.699981 110.07 0.929981 108.58 1.40998C107.46 1.73998 106.39 2.20998 105.34 2.81998C104.31 3.41998 103.4 4.07998 102.6 4.79998C98.12 8.85998 97.3 14.41 96.89 19.78C96.31 27.39 97.1 35.84 96.88 43.44C96.72 48.8 94.67 54.7 88.43 56.07C81.94 57.49 78.41 51.55 76.68 46.67C73.4 37.54 74.02 27.41 75.33 17.91C75.79 14.63 76.21 11.23 75.11 8.10998C73.42 3.36998 68.19 1.99997 63.37 0.78997C61.89 0.41997 60.51 0.819975 59.59 1.91998C59.04 2.57998 58.98 3.29998 59.53 3.84998C63.17 7.52998 62.74 10.46 61.53 14.91C60.19 19.89 59.34 25.01 59.39 30.15C59.47 36.92 61.14 44.66 64.93 50.38C68.78 56.26 75.66 61.85 83.19 62.01C88.33 62.13 93.51 59.6 97.49 56.52C97.82 60.55 97.88 65.5 97.93 69.19C97.98 73.18 97.52 77.19 96.51 81.11C95.51 85.02 93.87 88.64 90.62 91.37C88.18 93.43 85.37 94.16 82.29 94.04C76.41 93.8 72.65 87.62 73.15 82.45C73.45 79.43 74.83 77.14 77.26 75.33C77.52 75.15 77.79 74.97 78.02 74.75C78.71 74.07 79.07 73.24 78.84 72.34C78.61 71.42 77.86 70.9 76.93 70.67C76.68 70.62 76.4 70.57 76.14 70.58C72.11 70.79 68.24 71.69 64.99 74.09C61.81 76.44 59.86 79.67 59.57 83.6C59.36 86.47 60.5 89 62.3 91.19C68.42 98.67 81.04 100.49 89.95 97.75C100.81 94.44 107.25 85.36 109.84 74.71C111.18 69.27 111.74 63.8 111.69 58.29C111.64 52.1 111.46 36.17 111.41 27.6C111.37 20.54 111.81 11.04 112.49 8.29998C112.82 6.98998 113.22 5.76998 114.21 4.77998L114.23 4.79998Z" fill="#530F13"/>
<path d="M155.43 30.9799C155.43 29.6599 155.43 28.4599 155.43 27.25C155.43 23.6199 155.43 19.99 155.43 16.36C155.43 14.66 155.2 12.9799 154.49 11.4299C153.39 9.02994 151.49 7.62996 148.91 7.09996C147.45 6.79996 146.01 6.84995 144.56 7.15995C138.93 8.37995 136.35 14.2999 138.5 19.3399C139.11 20.7699 139.82 22.16 140.88 23.33C141.36 23.86 141.31 24.5599 140.83 25.1999C140.02 26.2699 138.82 26.66 137.52 26.3C135.14 25.65 132.87 24.75 130.79 23.41C128.11 21.68 126.56 19.2499 126.07 16.0899C125.38 11.6899 127.27 8.38994 130.47 5.67994C133.44 3.16994 136.96 1.71996 140.74 0.989956C146.49 -0.120044 152.19 0.199956 157.76 1.98996C160.66 2.92996 163.41 4.24995 165.62 6.43995C168.02 8.82995 169.68 11.63 169.88 15.11C169.97 16.68 169.98 18.2599 169.99 19.8399C169.99 30.1599 169.99 40.4799 169.99 50.8099C169.99 52.5699 170.13 54.3199 170.6 56.0399C170.88 57.0499 171.37 57.91 172.23 58.5C172.88 58.95 173.29 59.4999 173.15 60.3399C173 61.2099 172.34 61.6199 171.62 61.8099C170.95 61.9899 170.21 62.03 169.51 61.99C165.49 61.77 161.86 60.5799 159.03 57.5399C157.74 56.1399 156.74 54.55 156.17 52.71C156.09 52.44 155.98 52.1699 155.85 51.7799C155.55 52.1899 155.36 52.5399 155.09 52.8099C153.89 54.0399 152.75 55.3299 151.45 56.4499C149.26 58.3299 146.77 59.78 144.03 60.72C141.88 61.46 139.65 61.9 137.37 62C134.38 62.1399 131.45 61.76 128.58 60.94C126.9 60.46 125.38 59.5699 124.04 58.4499C123.35 57.8799 122.68 57.27 122.09 56.6C120.07 54.29 119.21 51.49 118.95 48.5C118.52 43.6399 120.45 39.69 123.76 36.3C125.91 34.09 128.43 32.3999 131.23 31.1799C133.74 30.0899 136.38 29.36 139.13 29.27C144.25 29.09 149.34 29.39 154.32 30.69C154.65 30.78 154.98 30.8599 155.43 30.9799ZM155.45 34.6699C155.3 34.6099 155.25 34.58 155.2 34.57C151.05 33.87 146.94 33.96 142.99 35.49C139.2 36.96 136.33 39.4199 135.27 43.5599C134.65 45.9699 134.55 48.3499 135.38 50.75C136.09 52.7999 137.57 53.91 139.6 54.32C141.88 54.78 144.13 54.3199 146.11 53.2899C150.56 50.9799 153.69 47.47 155.01 42.49C155.7 39.9 155.3 37.2799 155.46 34.6699H155.45Z" fill="#530F13"/>
<path d="M232.32 4.79998C232.49 4.63998 232.67 4.47998 232.86 4.32998C233.65 3.69998 234.31 3.05998 233.89 2.04998C233.45 0.97998 232.46 0.639981 231.32 0.659981C229.71 0.699981 228.16 0.929981 226.67 1.40998C225.55 1.73998 224.48 2.20998 223.43 2.81998C222.4 3.41998 221.49 4.07998 220.69 4.79998C216.21 8.85998 215.39 14.41 214.98 19.78C214.4 27.39 215.19 35.84 214.97 43.44C214.81 48.8 212.76 54.7 206.52 56.07C200.03 57.49 196.5 51.55 194.77 46.67C191.49 37.54 192.11 27.41 193.42 17.91C193.88 14.63 194.3 11.23 193.2 8.10998C191.51 3.36998 186.28 1.99997 181.46 0.78997C179.98 0.41997 178.6 0.819975 177.68 1.91998C177.13 2.57998 177.07 3.29998 177.62 3.84998C181.26 7.52998 180.83 10.46 179.62 14.91C178.28 19.89 177.43 25.01 177.48 30.15C177.56 36.92 179.23 44.66 183.02 50.38C186.87 56.26 193.75 61.85 201.28 62.01C206.42 62.13 211.6 59.6 215.58 56.52C215.91 60.55 215.97 65.5 216.02 69.19C216.07 73.18 215.61 77.19 214.6 81.11C213.6 85.02 211.96 88.64 208.71 91.37C206.27 93.43 203.46 94.16 200.38 94.04C194.5 93.8 190.74 87.62 191.24 82.45C191.54 79.43 192.92 77.14 195.35 75.33C195.61 75.15 195.88 74.97 196.11 74.75C196.8 74.07 197.16 73.24 196.93 72.34C196.7 71.42 195.95 70.9 195.02 70.67C194.77 70.62 194.49 70.57 194.23 70.58C190.2 70.79 186.33 71.69 183.08 74.09C179.9 76.44 177.95 79.67 177.66 83.6C177.45 86.47 178.59 89 180.39 91.19C186.51 98.67 199.13 100.49 208.04 97.75C218.9 94.44 225.34 85.36 227.93 74.71C229.27 69.27 229.83 63.8 229.78 58.29C229.73 52.1 229.55 36.17 229.5 27.6C229.46 20.54 229.9 11.04 230.58 8.29998C230.91 6.98998 231.31 5.76998 232.3 4.77998L232.32 4.79998Z" fill="#530F13"/>
</svg>
